<svg width="18" height="18" viewBox="0 0 18 18" fill="none" xmlns="http://www.w3.org/2000/svg">
<rect width="18" height="18" rx="1" fill="white" fill-opacity="0.7"/>
<path d="M14.3333 7.66694H10.3332V3.66683C10.3332 3.43106 10.2395 3.20493 10.0728 3.03821C9.90606 2.87149 9.67994 2.77783 9.44417 2.77783H8.55594C8.32017 2.77783 8.09405 2.87149 7.92733 3.03821C7.76061 3.20493 7.66694 3.43106 7.66694 3.66683V7.66694H3.66683C3.43105 7.66694 3.20493 7.76061 3.03821 7.92733C2.87149 8.09405 2.77783 8.32017 2.77783 8.55594L2.77783 9.44494C2.77783 9.68072 2.87149 9.90684 3.03821 10.0736C3.20493 10.2403 3.43105 10.3339 3.66683 10.3339H7.66694V14.3341C7.66715 14.5697 7.7609 14.7956 7.9276 14.9622C8.0943 15.1287 8.3203 15.2223 8.55594 15.2223H9.44417C9.67994 15.2223 9.90606 15.1286 10.0728 14.9619C10.2395 14.7952 10.3332 14.5691 10.3332 14.3333V10.3332H14.3333C14.5691 10.3332 14.7952 10.2395 14.9619 10.0728C15.1286 9.90606 15.2223 9.67994 15.2223 9.44417V8.55594C15.2223 8.32017 15.1286 8.09405 14.9619 7.92733C14.7952 7.76061 14.5691 7.66694 14.3333 7.66694Z" fill="#0B49D1"/>
</svg>
