<svg width="18" height="18" viewBox="0 0 18 18" fill="none" xmlns="http://www.w3.org/2000/svg">
<rect width="18" height="18" rx="1" fill="#0B49D1"/>
<path d="M4.77773 13.6755L4.76529 13.6669C4.73676 13.6389 4.71411 13.6054 4.69864 13.5685C4.68318 13.5315 4.67522 13.4919 4.67522 13.4519C4.67522 13.4119 4.68318 13.3722 4.69864 13.3353C4.71411 13.2984 4.73676 13.2649 4.76529 13.2368L5.7764 12.2257C5.83083 12.171 5.90402 12.1391 5.98115 12.1363C6.05827 12.1336 6.13355 12.1602 6.19173 12.2109C6.96659 12.8947 7.96533 13.2705 8.99873 13.2672C9.69379 13.2662 10.3781 13.0955 10.9921 12.7698C11.6062 12.4441 12.1314 11.9734 12.522 11.3985C12.9127 10.8236 13.157 10.162 13.2337 9.4712C13.3104 8.78038 13.2172 8.08129 12.9622 7.4347C12.7072 6.78812 12.2981 6.21362 11.7704 5.76118C11.2428 5.30873 10.6126 4.99203 9.93468 4.83862C9.25676 4.68521 8.55163 4.69973 7.8806 4.88092C7.20957 5.06211 6.59296 5.40449 6.0844 5.87827L4.64317 4.44405C5.52969 3.59688 6.64416 3.02683 7.84993 2.80381C9.05569 2.58079 10.3003 2.71449 11.4312 3.18853C12.5621 3.66256 13.5301 4.45632 14.2164 5.47246C14.9028 6.4886 15.2776 7.68295 15.2951 8.90904C15.3126 10.1351 14.9718 11.3397 14.3147 12.3749C13.6576 13.4102 12.7126 14.2312 11.5957 14.7372C10.4787 15.2433 9.2384 15.4124 8.02677 15.2238C6.81515 15.0352 5.68489 14.4971 4.77462 13.6755H4.77773ZM3.30851 7.98216C3.22861 7.98247 3.14943 7.96701 3.07551 7.93667C3.0016 7.90633 2.93439 7.8617 2.87775 7.80535C2.8211 7.74899 2.77613 7.68202 2.74542 7.60825C2.7147 7.53449 2.69883 7.4554 2.69873 7.37549V3.96805C2.69906 3.84744 2.7351 3.72964 2.80231 3.62949C2.86952 3.52935 2.96488 3.45135 3.07637 3.40534C3.18786 3.35933 3.31047 3.34737 3.42875 3.37097C3.54702 3.39457 3.65566 3.45267 3.74095 3.53794L7.14529 6.94227C7.23066 7.02754 7.28877 7.13624 7.31227 7.25459C7.33576 7.37294 7.32357 7.4956 7.27724 7.60701C7.23091 7.71842 7.15253 7.81355 7.05204 7.88034C6.95156 7.94714 6.8335 7.98257 6.71284 7.98216H3.30851Z" fill="#BED0F9"/>
</svg>
